<svg width="512" height="512" viewBox="0 0 512 512" fill="none" xmlns="http://www.w3.org/2000/svg">
<g clip-path="url(#clip0_1_2)">
<path d="M256 0C323.895 0 389.01 26.9714 437.019 74.9807C485.029 122.99 512 188.105 512 256C512 323.895 485.029 389.01 437.019 437.019C389.01 485.029 323.895 512 256 512C188.105 512 122.99 485.029 74.9807 437.019C26.9714 389.01 0 323.895 0 256C0 188.105 26.9714 122.99 74.9807 74.9807C122.99 26.9714 188.105 0 256 0V0Z" fill="#FC32A9"/>
<path fill-rule="evenodd" clip-rule="evenodd" d="M113.6 250.1C113.6 191.8 171.6 144.9 246 144.9C281.8 144.9 312.5 154.8 336.7 173.7C357.3 189.8 372.4 212 380.2 237.1L380.4 237.7L380.6 238.4L381 239.7L381.6 242.1L383.2 247.7L384.9 254.1L387.8 264.7L392.4 281.5L399.8 309.1L408.2 340.5L421.7 391L426.8 410L425.7 411.2C390.1 450.1 341.3 476.7 286.4 484L285.9 480.7L285 474.1L284.2 469.3L283.3 463L282.1 455.3L281.6 452.3L280.5 445L279.8 440.7L278.9 435.1L278 429.7L277.1 424.5L276.2 419.4L275.4 414.4L274.5 409.6L273.7 405L273.1 401.6L272.4 398.3L272 396.2L271.2 392L270.6 389L269.9 385.3L269.3 382.7L268.8 380.2L268.3 377.8L268 376.2L267.3 373.2L266.8 371L266.3 368.8L265.9 367.4L265.4 365.4L265 363.5L264.5 361.6L264 359.8L263.7 358.7L263.2 357L262.8 355.4L262.5 354.3L262.1 353.3L261.8 352.4L261.4 351L261.1 350L260.9 349.4C260.359 347.811 259.759 346.243 259.1 344.7L258.8 344.1L261.1 338.1L252 338.4L249.5 338.5C166.9 340.2 113.6 305.1 113.6 250.1ZM273.314 191.686C270.313 188.686 266.243 187 262 187C257.757 187 253.687 188.686 250.686 191.686C247.686 194.687 246 198.757 246 203C246 207.243 247.686 211.313 250.686 214.314C253.687 217.314 257.757 219 262 219C266.243 219 270.313 217.314 273.314 214.314C276.314 211.313 278 207.243 278 203C278 198.757 276.314 194.687 273.314 191.686Z" fill="white"/>
<g clip-path="url(#clip1_1_2)">
<path d="M300.258 27.6012C280.052 38.5777 273.301 57.5774 271.383 74.0771C270.292 73.5829 269.059 73.2689 267.838 73.0062C258.786 71.0584 249.907 76.6638 247.999 85.53C246.091 94.3961 251.879 103.158 260.931 105.106C264.877 105.955 268.928 105.356 272.246 103.689C272.406 104.593 272.531 105.291 272.531 105.291C246.729 148.659 214.267 117.401 204.017 101.332C208.275 100.164 211.754 96.8116 212.731 92.269C214.141 85.7192 209.958 79.1933 203.271 77.7544C196.584 76.3155 189.937 80.5112 188.528 87.061C187.119 93.6108 191.483 100.022 198.17 101.461C198.46 101.523 198.633 101.58 198.922 101.622C188.057 136.376 162.74 147.499 141.35 103.1C141.787 103.246 142.392 103.324 142.853 103.423C149.54 104.862 156.037 100.634 157.446 94.0844C158.855 87.5346 154.641 81.1559 147.954 79.717C142.399 78.5217 136.86 81.1929 134.359 85.8813C130.087 74.4365 101.526 61.5422 110.126 72.0395C131.789 98.481 149.546 177.581 149.546 177.581L149.696 177.613C163.299 156.99 214.629 149.988 272.051 162.344C329.468 174.699 373.224 202.164 377.146 226.555L377.296 226.588C386.971 214.05 428.306 159.587 455.134 146.277C467.291 140.247 435.954 140.252 427.352 148.927C427.001 143.625 423.201 138.944 417.646 137.749C410.959 136.31 404.344 140.358 402.935 146.908C401.526 153.458 405.858 160.016 412.545 161.455C413.007 161.554 413.439 161.7 413.898 161.746C376.139 193.418 357.638 172.866 362.03 136.72C362.31 136.8 362.642 136.851 362.932 136.914C369.619 138.353 376.083 134.272 377.493 127.722C378.902 121.172 374.72 114.646 368.033 113.207C361.346 111.768 354.699 115.964 353.289 122.514C352.312 127.057 354.104 131.543 357.504 134.359C341.553 144.79 299.257 159.962 293.577 109.819C293.577 109.819 293.977 109.234 294.495 108.476C296.834 111.36 300.129 113.54 304.076 114.389C313.127 116.337 322.007 110.732 323.915 101.865C325.823 92.9993 320.035 84.2377 310.983 82.2899C309.762 82.0272 308.509 81.807 307.311 81.8081C312.349 65.9796 314.161 45.9174 300.258 27.6011L300.258 27.6012Z" fill="black"/>
</g>
</g>
<defs>
<clipPath id="clip0_1_2">
<rect width="512" height="512" fill="white"/>
</clipPath>
<clipPath id="clip1_1_2">
<rect width="357.335" height="178.328" fill="white" transform="translate(125.514 -10) rotate(12.1436)"/>
</clipPath>
</defs>
</svg>
